<svg xmlns="http://www.w3.org/2000/svg" width="175" height="112" viewBox="0 0 175 112">
    <g fill="none" fill-rule="evenodd">
        <path fill="#4CC4B9" d="M82.94 59.078c-.96-.123-1.92-.216-2.94-.216s-1.98.093-2.94.216l-4.95-6.508c-.45-.586-1.26-.74-1.92-.37L59.81 58.37c-.66.37-.9 1.202-.66 1.88l3 7.68a22.693 22.693 0 0 0-2.94 5.213l-7.95 1.172c-.72.092-1.26.74-1.26 1.51v12.338c0 .77.54 1.418 1.26 1.51l7.95 1.173c.75 1.881 1.77 3.608 2.94 5.212l-3 7.68c-.27.709 0 1.51.66 1.88l10.38 6.17c.66.4 1.47.215 1.92-.37l4.95-6.509c.96.124 1.95.216 2.94.216s1.98-.092 2.94-.216l4.95 6.508c.45.586 1.26.74 1.92.37l10.38-6.168c.66-.37.9-1.203.66-1.881l-3-7.68c1.2-1.604 2.19-3.33 2.94-5.212l7.95-1.172c.72-.093 1.26-.74 1.26-1.511V75.825c0-.771-.54-1.419-1.26-1.511l-7.95-1.172c-.75-1.882-1.77-3.609-2.94-5.213l3-7.68c.27-.708 0-1.51-.66-1.88L89.81 52.2c-.66-.37-1.47-.216-1.92.37l-4.95 6.508zm7.56 22.915c0 5.953-4.71 10.795-10.5 10.795s-10.5-4.842-10.5-10.795C69.5 76.041 74.21 71.2 80 71.2s10.5 4.842 10.5 10.794z"/>
        <path fill="#99DDD7" d="M156.96 52.681c-.64-.08-1.28-.14-1.96-.14-.68 0-1.32.06-1.96.14l-3.3-4.22c-.3-.38-.84-.48-1.28-.24l-6.92 4c-.44.24-.6.78-.44 1.22l2 4.98c-.8 1.04-1.46 2.16-1.96 3.38l-5.3.76c-.48.06-.84.48-.84.98v8c0 .5.36.92.84.98l5.3.76c.5 1.22 1.18 2.34 1.96 3.38l-2 4.98c-.18.46 0 .98.44 1.22l6.92 4c.44.26.98.14 1.28-.24l3.3-4.22c.64.08 1.3.14 1.96.14.66 0 1.32-.06 1.96-.14l3.3 4.22c.3.38.84.48 1.28.24l6.92-4c.44-.24.6-.78.44-1.22l-2-4.98c.8-1.04 1.46-2.16 1.96-3.38l5.3-.76c.48-.06.84-.48.84-.98v-8c0-.5-.36-.92-.84-.98l-5.3-.76c-.5-1.22-1.18-2.34-1.96-3.38l2-4.98c.18-.46 0-.98-.44-1.22l-6.92-4c-.44-.24-.98-.14-1.28.24l-3.3 4.22zm5.04 14.86c0 3.86-3.14 7-7 7s-7-3.14-7-7 3.14-7 7-7 7 3.14 7 7z"/>
        <path fill="#00AC9B" d="M147.45 5.898c-.8-.103-1.6-.18-2.45-.18-.85 0-1.65.077-2.45.18L138.425.475c-.375-.488-1.05-.617-1.6-.308l-8.65 5.14c-.55.309-.75 1.002-.55 1.568l2.5 6.4a18.911 18.911 0 0 0-2.45 4.343l-6.625.977c-.6.077-1.05.617-1.05 1.26v10.28c0 .642.45 1.182 1.05 1.259l6.625.977c.625 1.567 1.475 3.007 2.45 4.343l-2.5 6.4c-.225.59 0 1.26.55 1.568l8.65 5.14a1.21 1.21 0 0 0 1.6-.309l4.125-5.423c.8.103 1.625.18 2.45.18.825 0 1.65-.077 2.45-.18l4.125 5.423c.375.489 1.05.617 1.6.309l8.65-5.14c.55-.309.75-1.003.55-1.568l-2.5-6.4c1-1.336 1.825-2.776 2.45-4.343l6.625-.977c.6-.077 1.05-.617 1.05-1.26v-10.28c0-.642-.45-1.182-1.05-1.26l-6.625-.976c-.625-1.568-1.475-3.007-2.45-4.343l2.5-6.4a1.27 1.27 0 0 0-.55-1.568l-8.65-5.14c-.55-.309-1.225-.18-1.6.308l-4.125 5.423zm6.3 18.096c0 4.96-3.925 8.996-8.75 8.996s-8.75-4.035-8.75-8.996c0-4.96 3.925-8.995 8.75-8.995s8.75 4.035 8.75 8.995z"/>
        <path fill="#BAC3CA" d="M132.676 45.065a18.96 18.96 0 0 0-1.93-1.52 18.96 18.96 0 0 0-2.132-1.22l-.388-6.803c-.038-.614-.525-1.098-1.154-1.15l-10.045-.576c-.629-.052-1.183.412-1.333.993l-1.506 6.703a18.911 18.911 0 0 0-4.46 2.231l-6.038-2.895c-.541-.272-1.216-.076-1.575.457l-5.749 8.523c-.36.533-.288 1.232.166 1.631l4.947 4.514c-.359 1.65-.46 3.318-.398 4.971l-5.651 3.908a1.27 1.27 0 0 0-.421 1.607l4.297 9.099c.269.584.915.834 1.499.639l6.452-2.19a19.295 19.295 0 0 0 1.93 1.52c.684.461 1.411.858 2.132 1.22l.387 6.803c.038.615.526 1.099 1.154 1.15l10.046.576c.628.052 1.182-.412 1.333-.992l1.506-6.704a18.911 18.911 0 0 0 4.46-2.23l6.038 2.894c.54.272 1.216.076 1.575-.457l5.749-8.522c.359-.533.288-1.232-.167-1.632l-4.946-4.514c.359-1.65.459-3.318.398-4.971l5.651-3.908a1.27 1.27 0 0 0 .42-1.607l-4.296-9.098c-.283-.564-.915-.834-1.499-.64l-6.452 2.19zm-5.917 19.321c-2.774 4.113-8.284 5.263-12.284 2.565s-4.998-8.238-2.224-12.35c2.774-4.113 8.284-5.263 12.284-2.565s4.998 8.238 2.224 12.35z"/>
        <path fill="#758695" d="M38.43 25.258c-1.12-.144-2.24-.252-3.43-.252s-2.31.108-3.43.252l-5.775-7.593c-.525-.683-1.47-.863-2.24-.431l-12.11 7.196c-.77.432-1.05 1.403-.77 2.195l3.5 8.96a26.475 26.475 0 0 0-3.43 6.08L1.47 43.033C.63 43.14 0 43.896 0 44.796v14.392c0 .9.63 1.656 1.47 1.764l9.275 1.367c.875 2.195 2.065 4.21 3.43 6.08l-3.5 8.96c-.315.828 0 1.763.77 2.195l12.11 7.197c.77.467 1.715.251 2.24-.432l5.775-7.592c1.12.144 2.275.251 3.43.251 1.155 0 2.31-.107 3.43-.251l5.775 7.592c.525.683 1.47.863 2.24.432l12.11-7.197c.77-.432 1.05-1.403.77-2.195l-3.5-8.96a26.475 26.475 0 0 0 3.43-6.08l9.275-1.367c.84-.108 1.47-.864 1.47-1.764V44.796c0-.9-.63-1.655-1.47-1.763l-9.275-1.368c-.875-2.195-2.065-4.21-3.43-6.08l3.5-8.96c.315-.828 0-1.763-.77-2.195l-12.11-7.196c-.77-.432-1.715-.252-2.24.431l-5.775 7.593zm8.82 26.734c0 6.945-5.495 12.594-12.25 12.594s-12.25-5.65-12.25-12.594c0-6.944 5.495-12.594 12.25-12.594s12.25 5.65 12.25 12.594z"/>
    </g>
</svg>
